# xmcd
#
# Track frame offsets: 
#        150
#        11347
#        22617
#        34586
#        46072
#        58412
#        70604
#        82737
#        95931
#        109054
#        122555
#        135126
#        148208
#        160334
#        172614
#        185031
#        198074
#        209406
#        222345
#        235133
#        245406
#        260083
#        272153
#        283753
#
# Disc length: 3905 seconds
#
# Revision: 0
# Processed by: cddbd v1.5.2PL0 Copyright (c) Steve Scherf et al.
# Submitted via: ExactAudioCopy v0.95a5
#
DISCID=4e0f3f18
DTITLE=Flatt and Scruggs - Foggy Mountain Special
DYEAR=1989
DGENRE=Bluegrass
TTITLE0=Old Salty Dog Blues
TTITLE1=I'll Just Pretend
TTITLE2=Come Back Darling
TTITLE3=I'll Stay Around
TTITLE4=We Can't Be Darlings Anymore
TTITLE5=Jimmie Brown, The Newsboy
TTITLE6=Don't Get Above Your Raising
TTITLE7='Tis Sweet To Be Remembered
TTITLE8=I'm Gonna Settle Down
TTITLE9=Earl's Breakdown ( Instr.)
TTITLE10=I'm Lonesome And Blue
TTITLE11=Over The Hills To The Poorhouse
TTITLE12=Brother, I'm Getting Ready To Go
TTITLE13=Why Did You Wander
TTITLE14=Flint Hill Special ( Instr.)
TTITLE15=Dim Lights, Thick Smoke ( And Loud, Loud Music)
TTITLE16=Dear Old Dixie ( Instr.)
TTITLE17=I'll Go Stepping Too
TTITLE18=Someone Took My Place With You
TTITLE19=Foggy Mountain Chimes ( Instr.)
TTITLE20=Mother Prays Loud In Her Sleep
TTITLE21=Be Ready For Tomorrow May Never Come
TTITLE22=Till The End Of The World Rolls Around
TTITLE23=Foggy Mountain Special ( Instr.)
EXTD=
EXTT0=
EXTT1=
EXTT2=
EXTT3=
EXTT4=
EXTT5=
EXTT6=
EXTT7=
EXTT8=
EXTT9=
EXTT10=
EXTT11=
EXTT12=
EXTT13=
EXTT14=
EXTT15=
EXTT16=
EXTT17=
EXTT18=
EXTT19=
EXTT20=
EXTT21=
EXTT22=
EXTT23=
PLAYORDER=
